<svg version="1.1" id="Layer_1" xmlns:x="ns_extend;" xmlns:i="ns_ai;" xmlns:graph="ns_graphs;" xmlns="http://www.w3.org/2000/svg" xmlns:xlink="http://www.w3.org/1999/xlink" x="0px" y="0px" viewBox="0 0 251.1 55" style="enable-background:new 0 0 251.1 55;" xml:space="preserve">
 <style type="text/css">
  .st0{fill:#5356EE;}
	.st1{fill-rule:evenodd;clip-rule:evenodd;fill:#5356EE;}
 </style>
 <metadata>
  <sfw xmlns="ns_sfw;">
   <slices>
   </slices>
   <sliceSourceBounds bottomLeftOrigin="true" height="55" width="251.1" x="-147" y="0.6">
   </sliceSourceBounds>
  </sfw>
 </metadata>
 <g id="Canvas">
  <g id="Mercari_Logo-01">
   <path id="Shape" class="st0" d="M72,54.5v-6.9H54.7v-6.4h16.5v-6.8H54.7v-6.7H72V21H47.3v33.5H72z">
   </path>
   <path id="Shape_2" class="st1" d="M107.6,18.1c2.4,2,3.6,4.7,3.6,8.1c0.1,4.4-2.4,8.5-6.4,10.4l7.4,12.1h-8.4L97.4,38h-5.3v10.6
			h-7.4V15.1h13.8C102.2,15.1,105.3,16.1,107.6,18.1z M97.3,22h-5.2v9.2h5.2c4.5,0,6.7-1.6,6.7-4.7C104,23.4,101.8,22,97.3,22z">
   </path>
   <path id="Shape_3" class="st0" d="M147.4,43.5c-2.2,3-5.2,4.6-8.8,4.6c-2.6,0.1-5.2-0.9-7.1-2.8c-1.9-1.9-2.9-4.4-2.9-7.6
			c0-3.2,1-5.7,2.9-7.5c1.8-1.8,4.2-2.8,6.7-2.8c3.4-0.1,6.6,1.6,8.6,4.4l0.1,0.2l5-5.1l-0.1-0.1c-3.4-4.2-7.8-6.3-13.3-6.3
			c-5,0-9.2,1.6-12.5,4.8c-3.3,3.2-5,7.4-5,12.6c0,5.1,1.7,9.3,5,12.5c3.3,3.1,7.6,4.7,12.7,4.7c5.6,0,10.1-2.1,13.6-6.3l0.1-0.1
			l-4.9-5.2L147.4,43.5z">
   </path>
   <path id="Shape_4" class="st1" d="M172.2,15.1h6.9l0,0.1l13,33.4h-7.6l-2.4-6h-12.9l-2.4,6h-7.7l0.1-0.3L172.2,15.1z M171.6,36h8
			l-4-10.6L171.6,36z">
   </path>
   <path id="Shape_5" class="st1" d="M224.7,23.9c2.4,2,3.6,4.7,3.6,8.1c0.1,4.4-2.4,8.5-6.4,10.4l7.4,12.1h-8.4l-6.5-10.6h-5.3v10.6
			h-7.4V21h13.8C219.3,21,222.3,21.9,224.7,23.9z M214.4,27.8h-5.2V37h5.2c4.5,0,6.7-1.6,6.7-4.7C221,29.3,218.9,27.8,214.4,27.8z">
   </path>
   <path id="Rectangle-path" class="st0" d="M240.4,18h7.3v30.6h-7.3V18z">
   </path>
   <path id="Rectangle-path_2" class="st0" d="M239.6,8l3.4-8l8.1,3.4l-3.4,8L239.6,8z">
   </path>
   <path id="Shape_6" class="st0" d="M17.2,33.3l9.4-18.1h7.5v33.5h-7.4V29.5h-0.1l-7.2,12.9h-4.8L7.5,29.5H7.4v19.1H0V15.1h7.5
			L17,33.3H17.2z">
   </path>
  </g>
 </g>
</svg>