<svg width="191px" height="47px" viewBox="0 0 191 47" version="1.1" xmlns="http://www.w3.org/2000/svg" xmlns:xlink="http://www.w3.org/1999/xlink">
 <!-- Generator: Sketch 47.1 (45422) - http://www.bohemiancoding.com/sketch -->
 <title>
  OfferUp wordmark - links to offerup.com
 </title>
 <desc>
  Created with Sketch.
 </desc>
 <defs>
  <path d="M11.0821384,1.16297812 C12.4700899,0.444556369 14.1493243,0.0855018785 16.1207755,0.0855018785 C18.0925378,0.0855018785 19.8632651,0.444556369 21.4329572,1.16297812 C23.0032717,1.8810871 24.327116,2.87599331 25.4041787,4.14613293 C26.4809302,5.41721085 27.3115227,6.92692864 27.8956448,8.67653737 C28.479767,10.4258333 28.7719837,12.6217581 28.7719837,14.6844448 C28.7719837,16.783725 28.4523814,19.0074859 27.8137993,20.7755478 C27.1742836,22.5432969 26.2802063,24.0623976 25.1300116,25.3331628 C23.9798169,26.6036152 22.6105375,27.5985214 21.0224846,28.3166303 C19.4341205,29.0347393 17.6907788,29.3937938 15.7921484,29.3937938 C14.0394708,29.3937938 12.5245498,29.1266923 11.246452,28.5928021 C9.96897653,28.0582863 9.01981693,27.4049197 8.398662,26.6314513 L8.398662,36.9201765 L0.0743767681,36.9201765 L0.0743767681,0.748564178 L8.12511732,0.748564178 L8.12511732,3.56657895 C8.70923947,2.68207887 9.69480944,1.8810871 11.0821384,1.16297812 Z M12.4492395,21.1477384 C13.1973639,21.442676 13.9734964,21.590614 14.7763921,21.590614 C15.5795989,21.590614 16.3554202,21.4517462 17.1044783,21.1758873 C17.8522915,20.8997155 18.5188817,20.4759187 19.1030038,19.9051221 C19.687126,19.3346383 20.1436562,18.6159038 20.471972,17.7504824 C20.8009103,16.8853737 20.9649126,15.8817101 20.9649126,14.7398042 C20.9649126,13.5978984 20.8009103,12.4581818 20.471972,11.6112136 C20.1436562,10.7639326 19.687126,10.0552065 19.1030038,9.48440998 C18.5188817,8.91361342 17.8522915,8.48981653 17.1044783,8.21364482 C16.3554202,7.93747312 15.5795989,7.79923089 14.7763921,7.79923089 C13.9734964,7.79923089 13.1973639,7.93747312 12.4492395,8.21364482 C11.7001814,8.48981653 11.0432385,8.91361342 10.4774771,9.48440998 C9.91140455,10.0552065 9.46421034,10.7639326 9.13558328,11.6112136 C8.80664503,12.4581818 8.6423315,13.5978984 8.6423315,14.7398042 C8.6423315,15.8817101 8.80664503,16.875678 9.13558328,17.7226463 C9.46421034,18.5699273 9.91140455,19.2789661 10.4774771,19.8500754 C11.0432385,20.420872 11.7001814,20.8534263 12.4492395,21.1477384 Z" id="path-1">
  </path>
  <path d="M22.1796499,0.0601565892 L22.1796499,24.0711879 C22.1796499,26.5157861 21.5775002,28.3398938 20.3725783,29.5428724 C19.1673451,30.7464897 17.524581,31.3481387 15.4439746,31.3481387 C13.3627459,31.3481387 11.7196705,30.7464897 10.515371,29.5428724 C9.31044906,28.3398938 8.70767692,26.5157861 8.70767692,24.0711879 L8.70767692,0.0601565892 L0.0547691779,0.0601565892 L0.0547691779,24.8044077 C0.0547691779,27.3243716 0.456513546,29.5336113 1.25969109,31.4327655 C2.06286864,33.3319197 3.1582522,34.92993 4.54584177,36.2274352 C5.93343134,37.524621 7.55752418,38.5024603 9.41998742,39.1603143 C11.2818283,39.8184876 13.2896166,40.1480533 15.4439746,40.1480533 C17.5616124,40.1480533 19.560065,39.8184876 21.440266,39.1603143 C23.3207782,38.5024603 24.9545179,37.524621 26.3417963,36.2274352 C27.7290747,34.92993 28.8247694,33.3319197 29.6279469,31.4327655 C30.4308133,29.5336113 30.8325577,27.3243716 30.8325577,24.8044077 L30.8325577,0.0601565892 L22.1796499,0.0601565892 Z" id="path-3">
  </path>
  <path d="M13.5123645,0.196571201 C12.8489924,0.282336342 12.1488019,0.425382582 11.4726234,0.720239384 C10.7970852,1.01478317 8.96800951,1.94567927 8.34849937,3.44625624 L8.34849937,0.167148123 L0.0656328567,0.167148123 L0.0656328567,28.8070713 L8.62992025,28.8070713 L8.62992025,15.6480692 C8.62992025,14.2839652 8.80824953,13.1230057 9.16522824,12.1651906 C9.52188679,11.2064365 10.0008466,10.4326722 10.6021076,9.84264555 C11.2027282,9.25324496 11.8977962,8.82911442 12.6866711,8.57119298 C13.4752259,8.31327153 14.2221598,8.11482226 15.1659923,8.0422036 C16.1088643,7.96989795 17.2374293,8.06661849 17.7256737,8.17711154 L17.870066,0.428512697 C17.2316664,0.244148944 16.2686243,0.0867041761 15.6161376,0.0867041761 C14.9902243,0.0867041761 14.1895035,0.109241002 13.5123645,0.196571201 Z" id="path-5">
  </path>
  <path d="M8.32294753,1.06047713 C9.93289635,0.375065284 11.5962052,0.0325166375 13.313484,0.0325166375 C17.463371,0.0325166375 20.7274812,1.27311523 23.1061196,3.75494151 C25.4850629,6.23676779 26.6748395,9.71855932 26.6748395,14.2006306 C26.6748395,14.7932492 26.6571545,15.3581871 26.6208696,15.8948152 C26.5854995,16.432387 26.5495196,16.7381329 26.5135397,16.8120529 L7.94759772,16.8120529 C7.98296781,17.5899435 8.17079517,18.3027215 8.51077489,18.9513306 C8.85075462,19.5996251 9.29745443,20.1642484 9.85239891,20.6455151 C10.4064286,21.1270964 11.0418706,21.4976403 11.7572001,21.7571468 C12.4725296,22.0163388 13.2238391,22.1456203 14.0111284,22.1456203 C15.5131375,22.1456203 16.6849241,21.8125082 17.5258785,21.1462841 C18.3665279,20.4791164 18.98337,19.6087471 19.3767098,18.5342328 L26.1921598,20.5347923 C25.8695602,21.719715 25.3688905,22.8499053 24.6895409,23.9241052 C24.0092765,24.998305 23.1509421,25.9334722 22.1139277,26.7296069 C21.0759985,27.5260561 19.8685369,28.155792 18.4918477,28.6188146 C17.1139389,29.0815226 15.5850973,29.3133485 13.9034936,29.3133485 C12.0791899,29.3133485 10.3259312,28.9799219 8.64524221,28.3130687 C6.96333356,27.6468446 5.47900953,26.6836821 4.19074556,25.4238958 C2.90370125,24.1647385 1.88376208,22.6275161 1.13275755,20.8122284 C0.381143186,18.9972553 0.00579337643,16.9230903 0.00579337643,14.5897332 C0.00579337643,12.3670989 0.372300664,10.3574173 1.10562016,8.56100282 C1.83924456,6.76458839 2.8228989,5.23680255 4.05688808,3.97733076 C5.29148709,2.71817352 6.71299871,1.74557442 8.32294753,1.06047713 Z M8.68396636,9.57638118 C8.45162147,10.1318825 8.31715416,10.6691397 8.28147915,11.1878382 L18.9595867,11.1878382 C18.9242166,10.6691397 18.8077392,10.1318825 18.6110693,9.57638118 C18.4140945,9.02119444 18.1009473,8.52073999 17.6719325,8.07627604 C17.2426128,7.6318121 16.6971207,7.2612682 16.0351512,6.9649589 C15.3734867,6.6686496 14.5596697,6.52049495 13.5940053,6.52049495 C12.7350611,6.52049495 11.9837516,6.6686496 11.3403819,6.9649589 C10.6960975,7.2612682 10.1506053,7.6318121 9.70299078,8.07627604 C9.25659588,8.52073999 8.91600633,9.02119444 8.68396636,9.57638118 Z" id="path-7">
  </path>
  <path d="M34.7542665,0.863821889 C33.4311755,1.39237027 32.305984,2.13868829 31.3793368,3.1021345 C30.4530119,4.06429783 29.7532724,5.20702714 29.2810852,6.52871882 C28.8082533,7.85073123 28.5716763,9.32348256 28.5716763,10.947935 L28.5716763,13.3834911 L18.645109,13.3834911 L18.645109,10.947935 C18.645109,10.2301611 18.7682322,9.64484511 19.0141563,9.19166618 C19.2597581,8.73816654 19.5624091,8.37960034 19.9214648,8.11500542 C20.2808428,7.85073123 20.6779312,7.67176885 21.1127302,7.57715612 C21.5475292,7.48222268 21.9542871,7.43507667 22.3323591,7.43507667 C22.9750494,7.43507667 23.5042858,7.46362085 23.920713,7.52038849 C24.3361733,7.57715612 24.6578407,7.64290395 24.8844261,7.71859413 L25.3317953,0.69351898 C24.9160127,0.504934969 23.8636638,0.353875327 23.0698091,0.240340054 C22.2756322,0.127446224 21.5191657,0.0706785883 20.8007321,0.0706785883 C19.0992467,0.0706785883 17.5769667,0.335273502 16.2348593,0.863821889 C14.8924295,1.39237027 13.757891,2.13868829 12.8315661,3.1021345 C11.9049188,4.06429783 11.2051793,5.20702714 10.7326698,6.52871882 C10.2601603,7.85073123 10.0235832,9.32348256 10.0235832,10.947935 L10.0235832,13.3834911 L0.0531814925,13.3834911 L0.0531814925,20.635316 L10.0235832,20.635316 L10.0235832,39.7118076 L18.645109,39.7118076 L18.645109,20.635316 L28.5716763,20.635316 L28.5716763,39.7118076 L37.193202,39.7118076 L37.193202,20.635316 L41.7078272,20.635316 L43.3193876,13.3834911 L37.193202,13.3834911 L37.193202,10.947935 C37.193202,10.2301611 37.3163252,9.64484511 37.5622493,9.19166618 C37.8081734,8.73816654 38.1105022,8.37960034 38.4695578,8.11500542 C38.8289358,7.85073123 39.225702,7.67176885 39.6611456,7.57715612 C40.0956222,7.48222268 40.5020578,7.43507667 40.8801298,7.43507667 C41.5231424,7.43507667 42.0527012,7.46362085 42.4688061,7.52038849 C42.8845886,7.57715612 43.2056115,7.64290395 43.4325192,7.71859413 L43.879566,0.637072065 C43.4637834,0.448167333 42.4114345,0.306408603 41.6179022,0.212437318 C40.8237252,0.117824591 40.0485647,0.0706785883 39.2920982,0.0706785883 C37.5902905,0.0706785883 36.0776799,0.335273502 34.7542665,0.863821889 Z" id="path-9">
  </path>
  <path d="M12.1959442,1.4914981 C14.5928516,0.559425985 17.1322916,0.0937082587 19.8158585,0.0937082587 C22.4984688,0.0937082587 25.0292994,0.559425985 27.4080314,1.4914981 C29.7870824,2.42357021 31.8794738,3.75896725 33.6861622,5.49737088 C35.4928507,7.2357745 36.9232786,9.33261843 37.9787213,11.788221 C39.0341641,14.2438235 39.5618855,16.9770104 39.5618855,19.9881 C39.5618855,22.9991895 39.0341641,25.7228264 37.9787213,28.1602841 C36.9232786,30.5980602 35.4928507,32.6856725 33.6861622,34.4243945 C31.8794738,36.1627981 29.7870824,37.4978768 27.4080314,38.4299489 C25.0292994,39.362021 22.4984688,39.8280571 19.8158585,39.8280571 C17.1322916,39.8280571 14.5928516,39.362021 12.1959442,38.4299489 C9.79903687,37.4978768 7.6973984,36.1627981 5.8910288,34.4243945 C4.08465921,32.6856725 2.65327473,30.5980602 1.59815082,28.1602841 C0.542389174,25.7228264 0.0149866497,22.9991895 0.0149866497,19.9881 C0.0149866497,16.9770104 0.542389174,14.2438235 1.59815082,11.788221 C2.65327473,9.33261843 4.08465921,7.2357745 5.8910288,5.49737088 C7.6973984,3.75896725 9.79903687,2.42357021 12.1959442,1.4914981 Z M16.0440057,30.3723638 C17.3019277,30.8037018 18.5681402,31.01953 19.8432808,31.01953 C21.1184215,31.01953 22.3843151,30.8037018 23.6422371,30.3723638 C24.900478,29.9403891 26.0289408,29.2674381 27.0279445,28.3522375 C28.0272671,27.4373553 28.8371839,26.2888183 29.4576949,24.9082183 C30.0778872,23.5269817 30.3881427,21.869434 30.3881427,19.9355754 C30.3881427,18.0370515 30.0778872,16.3791855 29.4576949,14.9638875 C28.8371839,13.5479528 28.0272671,12.3911392 27.0279445,11.4934468 C26.0289408,10.5960727 24.900478,9.92216678 23.6422371,9.47332057 C22.3843151,9.0247927 21.1184215,8.80005127 19.8432808,8.80005127 C18.5681402,8.80005127 17.3019277,9.0247927 16.0440057,9.47332057 C14.7864026,9.92216678 13.6490115,10.5960727 12.6327891,11.4934468 C11.615929,12.3911392 10.7977217,13.5479528 10.1772106,14.9638875 C9.55701842,16.3791855 9.24676289,18.0370515 9.24676289,19.9355754 C9.24676289,21.869434 9.55701842,23.5269817 10.1772106,24.9082183 C10.7977217,26.2888183 11.615929,27.4373553 12.6327891,28.3522375 C13.6490115,29.2674381 14.7864026,29.9403891 16.0440057,30.3723638 Z" id="path-11">
  </path>
 </defs>
 <g id="Page-1" stroke="none" stroke-width="1" fill="none" fill-rule="evenodd">
  <g id="HOW-IT-WORKS-/-Desktop" transform="translate(-100.000000, -4287.000000)">
   <g id="Footer" transform="translate(0.000000, 4214.000000)">
    <g id="OfferUp-wordmark---links-to-offerup.com" transform="translate(100.000000, 73.000000)">
     <g id="p" transform="translate(162.000000, 10.000000)">
      <mask id="mask-2" fill="white">
       <use href="#path-1">
       </use>
      </mask>
      <g id="Clip-17">
      </g>
      <polygon id="Fill-16" fill="#FFFFFF" mask="url(#mask-2)" points="-1.48162256 38.4840026 30.327983 38.4840026 30.327983 -1.4783243 -1.48162256 -1.4783243">
      </polygon>
     </g>
     <g id="U" transform="translate(127.000000, 0.000000)">
      <mask id="mask-4" fill="white">
       <use xlink:href="#path-3">
       </use>
      </mask>
      <g id="Clip-14">
      </g>
      <polygon id="Fill-13" fill="#FFFFFF" mask="url(#mask-4)" points="-1.50117338 41.7444669 32.388189 41.7444669 32.388189 -1.53657636 -1.50117338 -1.53657636">
      </polygon>
     </g>
     <g id="r" transform="translate(108.000000, 10.000000)">
      <mask id="mask-6" fill="white">
       <use xlink:href="#path-5">
       </use>
      </mask>
      <g id="Clip-11">
      </g>
      <polygon id="Fill-10" fill="#FFFFFF" mask="url(#mask-6)" points="-1.53516853 30.3721286 19.4708674 30.3721286 19.4708674 -1.47835315 -1.53516853 -1.47835315">
      </polygon>
     </g>
     <g id="e" transform="translate(76.000000, 10.000000)">
      <mask id="mask-8" fill="white">
       <use xlink:href="#path-7">
       </use>
      </mask>
      <g id="Clip-8">
      </g>
      <polygon id="Fill-7" fill="#FFFFFF" mask="url(#mask-8)" points="-1.51877937 30.8861154 28.1994122 30.8861154 28.1994122 -1.54025034 -1.51877937 -1.54025034">
      </polygon>
     </g>
     <g id="ff" transform="translate(33.000000, 0.000000)">
      <mask id="mask-10" fill="white">
       <use xlink:href="#path-9">
       </use>
      </mask>
      <g id="Clip-5">
      </g>
      <polygon id="Fill-4" fill="#FFFFFF" mask="url(#mask-10)" points="-1.55805658 41.3154131 45.4914487 41.3154131 45.4914487 -1.53292695 -1.55805658 -1.53292695">
      </polygon>
     </g>
     <g id="O">
      <mask id="mask-12" fill="white">
       <use xlink:href="#path-11">
       </use>
      </mask>
      <g id="Clip-2">
      </g>
      <polygon id="Fill-1" fill="#FFFFFF" mask="url(#mask-12)" points="-1.57901893 41.4197103 41.15621 41.4197103 41.15621 -1.49794494 -1.57901893 -1.49794494">
      </polygon>
     </g>
    </g>
   </g>
  </g>
 </g>
</svg>