<svg width="106" height="13" fill="none" xmlns="http://www.w3.org/2000/svg"><path d="M17.89 0c3.58 0 6.481 2.91 6.481 6.5S21.47 13 17.891 13c-3.58 0-6.48-2.91-6.48-6.5s2.9-6.5 6.48-6.5zm12.856 0c1.963 0 3.613.847 4.724 1.766l-1.225 1.557c-1.16-.914-2.264-1.382-3.568-1.382-1.482 0-2.4.687-2.408 1.576-.007.762.34 1.365 3.131 1.989l-.006-.003c2.92.654 4.227 1.706 4.286 3.808.058 2.101-1.705 3.687-4.809 3.687-2.173 0-3.892-.884-5.395-2.238l1.342-1.526c1.31 1.133 2.712 1.762 4.304 1.762 1.404 0 2.455-.618 2.412-1.621-.03-.713-.214-1.38-2.937-1.922-2.724-.542-4.498-1.421-4.465-3.817C26.16 1.454 27.94 0 30.746 0zM4.976.22C8 .22 9.948 1.812 9.948 4.35c0 2.536-2.088 4.244-5.203 4.244H2.087v4.185H0V.221h4.977zM40.11 5.493h6.447V.221h2.086v12.557h-2.086V7.44H40.11v5.338h-2.09V.221h2.09v5.271zm17.693.763L61.887.22h2.156v12.557h-2.087V3.633l-4.165 6.034h-.018L53.645 3.67v9.108H51.56V.221h2.155l4.087 6.034zm21.467 6.523h-2.271l-1.45-3.134h-6.29l-1.467 3.134h-2.198L71.518.221h1.823l5.928 12.557zM86.419.221c2.88 0 4.816 1.563 4.816 3.89h-.004c0 1.823-1.143 3.172-3.088 3.693l3.896 4.974h-2.597L85.856 8.17H82.84v4.608h-2.086V.221h5.666zm9.759 6.534L102.793.22h2.795l-5.682 5.56.003-.003 5.798 7h-2.651l-4.618-5.583-2.26 2.198v3.385H94.09V.221h2.088v6.534zM17.89 1.97c-2.404 0-4.355 2.028-4.355 4.53 0 2.502 1.948 4.53 4.355 4.53 2.404 0 4.355-2.028 4.355-4.53 0-2.502-1.951-4.53-4.355-4.53zm52.238 5.778h4.549L72.41 2.864l-2.28 4.884zM2.087 2.153V6.68h2.71c1.85 0 3.047-.895 3.047-2.28 0-2.027-2.08-2.247-2.975-2.247H2.087zm80.754 4.12h3.452c1.72 0 2.834-.83 2.834-2.11 0-1.277-1.026-2.01-2.816-2.01h-3.47v4.12z" fill="#610722"/></svg>